<svg id="Calque_1" data-name="Calque 1" xmlns="http://www.w3.org/2000/svg" viewBox="0 0 19 37.06"><defs><style>.cls-1,.cls-4{fill:#f15b25;}.cls-1,.cls-2,.cls-3{opacity:0.5;}.cls-2{fill:#f57f2a;}</style></defs><title>logopetit</title><path class="cls-1" d="M15.1,27.69l-.23.38a6.33,6.33,0,1,1-8.43-9l.07,0L6.64,19A6.33,6.33,0,0,0,8.8,10.28,6.33,6.33,0,0,1,11,1.6a6.14,6.14,0,0,1,.65-.34,6.18,6.18,0,0,0-.21.62,6.32,6.32,0,0,0,1.48,6L13,8A16.5,16.5,0,0,1,16.18,13,16.75,16.75,0,0,1,17,15.79,16.5,16.5,0,0,1,15.1,27.69Z"/><path class="cls-2" d="M15.65,26.45a6.37,6.37,0,0,1-7.91,4.16,6.15,6.15,0,0,1-3.38-2.54c-.14-.24-.28-.48-.41-.72A16.57,16.57,0,0,1,4.41,11a6.36,6.36,0,0,0,2.37,4.62,6.25,6.25,0,0,0,1,.68,6.18,6.18,0,0,0,1.32.5h0a16.47,16.47,0,0,1,4.58,3c.2.18.39.36.57.55A6.2,6.2,0,0,1,15.65,26.45Z"/><g class="cls-3"><path class="cls-4" d="M7.56,32.27a2.42,2.42,0,1,0,4.28,0,7.91,7.91,0,0,1-4.28,0Z"/></g></svg>