<?xml version="1.0" encoding="utf-8"?>
<!-- Generator: Adobe Illustrator 21.1.0, SVG Export Plug-In . SVG Version: 6.00 Build 0)  -->
<svg version="1.1" xmlns="http://www.w3.org/2000/svg" xmlns:xlink="http://www.w3.org/1999/xlink" x="0px" y="0px"
	 viewBox="0 0 1920 1080" style="enable-background:new 0 0 1920 1080;" xml:space="preserve">
<style type="text/css">
	.st0{opacity:0.5;fill:#F47F2A;}
	.st1{opacity:0.5;fill:#F05B25;}
	.st2{opacity:0.5;}
	.st3{fill:#F05B25;}
	.st4{fill:#515252;}
	.st5{fill:url(#SVGID_1_);}
</style>
<g id="flamme_gauche">
	<path class="st0" d="M697.2,677.4c-14.4,45.3-62.9,70.8-108.3,57c-19.9-6.1-35.9-18.7-46.3-34.7c-2-3.2-3.8-6.5-5.6-9.9
		c-16.8-31.7-26.3-67.8-26.3-106.2c0-19.3,2.4-38.1,7-56c5.5-21.8,14.2-42.2,25.5-61c1.3,23.9,12.4,47.2,32.5,63.3
		c4.5,3.6,9.3,6.7,14.3,9.3c5.8,3,11.9,5.3,18.1,6.9c0,0,0,0,0,0c23.2,10,44.3,23.7,62.7,40.4c2.7,2.4,5.3,4.9,7.9,7.5
		C698.8,615.6,706.9,647.1,697.2,677.4z"/>
</g>
<g id="flamme_droite">
	<path class="st1" d="M689.7,694.4c-1,1.8-2.1,3.5-3.2,5.2c-7.3,11.1-17.3,20.6-29.7,27.6c-41.7,23.5-94.5,8.8-118-32.9
		c-23.4-41.5-8.9-93.9,32.3-117.6c0.3-0.2,0.6-0.4,1-0.6c0.6-0.3,1.2-0.7,1.8-1.1c41-24.7,54.2-77.9,29.6-118.9
		c-14.9-24.7-15.9-53.9-5.5-78.5c6.9-16.3,18.8-30.6,35.1-40.4c2.9-1.8,5.9-3.3,8.9-4.7c-1.1,2.7-2.1,5.6-2.9,8.5
		c-8.5,30.3,0.2,61.3,20.2,82.7c0.3,0.3,0.5,0.6,0.9,0.9c18.5,19.8,33.6,43.2,44.2,69.2c4.8,12,8.8,24.6,11.6,37.6
		C728.5,589.5,717.6,647.1,689.7,694.4z"/>
</g>
<g id="socle">
	<g class="st2">
		<g>
			<path class="st3" d="M586.5,757.1c-2.4,4.6-3.8,9.8-3.8,15.3c0,18.3,14.8,33.1,33.1,33.1c18.3,0,33.1-14.8,33.1-33.1
				c0-5.5-1.4-10.7-3.8-15.3c-9.3,2.6-19.2,4-29.3,4S595.8,759.7,586.5,757.1z"/>
		</g>
	</g>
</g>
<g id="titre">
	<path class="st4" d="M807.1,506.6c0,3.2-0.6,6.2-1.9,9c-1.3,2.8-3,5.3-5.2,7.4c-2.2,2.1-4.7,3.8-7.6,5c-2.9,1.2-5.9,1.8-9.1,1.8
		h-6.8c-3.2,0-6.2-0.6-9.1-1.8c-2.9-1.2-5.4-2.9-7.6-5c-2.2-2.1-3.9-4.6-5.2-7.4c-1.3-2.8-1.9-5.8-1.9-9v-3.8l8.5-1.4v5.1
		c0,2.1,0.4,4.1,1.3,5.9c0.9,1.8,2,3.4,3.5,4.8c1.4,1.4,3.1,2.5,5,3.3c1.9,0.8,3.9,1.2,6,1.2h5.9c2.1,0,4.1-0.4,6-1.2
		c1.9-0.8,3.6-1.9,5-3.3c1.4-1.4,2.6-3,3.5-4.8c0.9-1.8,1.3-3.8,1.3-5.9v-2.8c0-3.2-0.6-5.9-1.9-8.1c-1.3-2.1-3-4-5.1-5.5
		c-2.1-1.5-4.5-2.8-7.1-3.9c-2.7-1.1-5.4-2.1-8.2-3.2c-2.8-1.1-5.5-2.2-8.2-3.5c-2.7-1.3-5-2.9-7.1-4.8c-2.1-1.9-3.8-4.2-5.1-7
		c-1.3-2.8-1.9-6.2-1.9-10.2v-1.8c0-3.2,0.6-6.2,1.8-9c1.2-2.8,2.9-5.3,5-7.4c2.1-2.1,4.6-3.8,7.4-5c2.8-1.2,5.8-1.8,9.1-1.8h6.1
		c3.2,0,6.2,0.6,9,1.8c2.8,1.2,5.3,2.9,7.4,5c2.1,2.1,3.8,4.6,5,7.4c1.2,2.8,1.8,5.8,1.8,9v2.4l-8.5,1.4v-3.8c0-2.1-0.4-4.1-1.2-5.9
		c-0.8-1.8-1.9-3.4-3.2-4.8c-1.4-1.4-3-2.4-4.8-3.2c-1.8-0.8-3.8-1.2-5.9-1.2h-5.3c-2.1,0-4.1,0.4-5.9,1.2c-1.8,0.8-3.4,1.9-4.8,3.2
		c-1.4,1.4-2.5,3-3.3,4.8c-0.8,1.8-1.2,3.8-1.2,5.9v1.8c0,3,0.6,5.6,1.9,7.6c1.3,2.1,3,3.8,5.1,5.3c2.1,1.5,4.5,2.7,7.1,3.8
		c2.7,1.1,5.4,2.2,8.2,3.3c2.8,1.1,5.5,2.3,8.2,3.7c2.7,1.3,5,3,7.1,4.9c2.1,2,3.8,4.3,5.1,7.1c1.3,2.8,1.9,6.2,1.9,10.3V506.6z"/>
	<path class="st4" d="M879.1,506.5h-29.9l-6.2,22h-8.8l27.7-94.4h4.5l27.8,94.4h-8.8L879.1,506.5z M851.5,498.4h25.3l-12.4-43.5
		l-0.3-3.5l-0.3,3.5L851.5,498.4z"/>
	<path class="st4" d="M942.1,507.8l0.3,3.5l0.3-3.5l20.9-73.7h8.8l-27.8,94.4H940l-27.7-94.4h8.8L942.1,507.8z"/>
	<path class="st4" d="M1052.7,515.7c-1.2,2.8-2.9,5.3-5,7.4c-2.1,2.1-4.6,3.8-7.4,5c-2.8,1.2-5.8,1.8-9,1.8h-6.7
		c-3.2,0-6.2-0.6-9.1-1.8c-2.8-1.2-5.3-2.9-7.4-5c-2.1-2.1-3.8-4.6-5-7.4c-1.2-2.8-1.8-5.8-1.8-9v-50.7c0-3.2,0.6-6.2,1.8-9
		c1.2-2.8,2.9-5.3,5-7.4c2.1-2.1,4.6-3.8,7.4-5c2.8-1.2,5.8-1.8,9.1-1.8h6.7c3.2,0,6.2,0.6,9,1.8c2.8,1.2,5.3,2.9,7.4,5
		c2.1,2.1,3.8,4.6,5,7.4c1.2,2.8,1.8,5.8,1.8,9v50.7C1054.5,509.8,1053.9,512.8,1052.7,515.7z M1046,455.9c0-2.1-0.4-4.1-1.2-5.9
		c-0.8-1.8-1.9-3.4-3.2-4.8c-1.4-1.4-3-2.4-4.8-3.2c-1.8-0.8-3.8-1.2-5.9-1.2h-5.9c-2.1,0-4.1,0.4-5.9,1.2c-1.8,0.8-3.4,1.9-4.8,3.2
		c-1.4,1.4-2.5,3-3.3,4.8c-0.8,1.8-1.2,3.8-1.2,5.9v50.7c0,2.1,0.4,4.1,1.2,5.9c0.8,1.8,1.9,3.4,3.3,4.8c1.4,1.4,3,2.5,4.8,3.3
		c1.8,0.8,3.8,1.2,5.9,1.2h5.9c2.1,0,4.1-0.4,5.9-1.2c1.8-0.8,3.4-1.9,4.8-3.3c1.4-1.4,2.4-3,3.2-4.8c0.8-1.8,1.2-3.8,1.2-5.9V455.9
		z"/>
	<path class="st4" d="M1093.1,528.5v-94.4h8.5v94.4H1093.1z"/>
	<path class="st4" d="M1185.9,528.5l-25.6-40.3h-11.7v40.3h-8.5v-94.4h30c3.2,0,6.2,0.6,9,1.8c2.8,1.2,5.3,2.9,7.4,5
		c2.1,2.1,3.8,4.6,5,7.4c1.2,2.8,1.8,5.8,1.8,9.1v7.6c0,3.2-0.6,6.2-1.8,9.1c-1.2,2.8-2.9,5.3-5,7.4s-4.6,3.8-7.4,5
		c-2.8,1.2-5.8,1.8-9,1.8l25.6,40.3H1185.9z M1184.8,457.3c0-2.1-0.4-4.1-1.2-5.9c-0.8-1.8-1.9-3.4-3.2-4.8c-1.4-1.4-3-2.5-4.8-3.3
		c-1.8-0.8-3.8-1.2-5.9-1.2h-21.1v37.9h21.1c2.1,0,4.1-0.4,5.9-1.2c1.8-0.8,3.4-1.9,4.8-3.3c1.4-1.4,2.4-3,3.2-4.8
		c0.8-1.8,1.2-3.8,1.2-5.9V457.3z"/>
	<path class="st4" d="M1279.6,528.5v-94.4h53.1v8.1h-44.6v35.1h36.1v8.1h-36.1v35h44.6v8.1H1279.6z"/>
	<path class="st4" d="M1390.2,442.2v86.3h-8.5v-86.3h-22.5v-8.1h53.5v8.1H1390.2z"/>
	<linearGradient id="SVGID_1_" gradientUnits="userSpaceOnUse" x1="756.4898" y1="641.0255" x2="1413.0677" y2="641.0255">
		<stop  offset="0" style="stop-color:#F05C27"/>
		<stop  offset="1" style="stop-color:#F47F2A"/>
	</linearGradient>
	<path class="st5" d="M762.4,720.5c-2.3-2.4-3.8-5.4-4.7-8.8c-0.8-3.4-1.2-7.2-1.2-11.5v-75.4c0-4.6,1.4-8.5,4.3-11.7
		c2.9-3.2,6.3-4.9,10.4-4.9c4.1,0,7.6,1.6,10.4,4.9c2.9,3.2,4.3,7.1,4.3,11.7l0.1,77.3h39.9c2.9,0,5.4,1.1,7.4,3.2
		c2,2.1,3.1,4.7,3.1,7.8s-1,5.7-3.1,7.8c-2,2.2-4.5,3.2-7.4,3.2h-54.6C767.6,724.2,764.7,723,762.4,720.5z M856.2,719.3
		c-2.8-3.2-4.3-7.1-4.3-11.7v-82.7c0-4.6,1.4-8.5,4.3-11.7c2.8-3.3,6.3-4.9,10.4-4.9c4,0,7.5,1.6,10.4,4.9c2.9,3.3,4.3,7.2,4.3,11.7
		v82.7c0,4.6-1.4,8.5-4.3,11.7c-2.9,3.2-6.3,4.9-10.4,4.9C862.5,724.2,859.1,722.6,856.2,719.3z M916.3,723.5c-2-0.5-3.9-1.5-5.6-3
		c-1.7-1.5-2.9-3.8-3.7-6.9c-0.7-3.1-1.1-7-1.1-11.9v-78.5c0-5.1,1.7-8.8,5.1-11.2c3.4-2.4,7.8-3.6,13.2-3.6h22.8c0.5,0,1.2,0,2.2,0
		c3.3,0,5.7,0,7.3,0c1.6,0,4,0.1,7.1,0.3c3.2,0.2,5.6,0.4,7.3,0.7c1.7,0.3,3.9,0.8,6.5,1.5c2.7,0.7,4.7,1.5,6.2,2.4
		c1.5,1,3.1,2.2,4.9,3.7c1.8,1.5,3.2,3.2,4.1,5.1c0.9,1.9,1.7,4.2,2.4,6.8c0.7,2.6,1,5.5,1,8.7c0,6.2-2,11.8-6.1,16.8
		c-4,5-9.3,8-15.7,9.2v0.3c7.9,1.2,14.1,4.3,18.9,9.5c4.7,5.2,7.1,11.3,7.1,18.5c0,4.2-0.8,8.2-2.5,12c-1.6,3.8-4,7.2-7.2,10.3
		c-3.2,3.1-7.4,5.5-12.7,7.3c-5.3,1.8-11.3,2.7-18,2.7h-35.8C921,724.2,918.3,724,916.3,723.5z M944.2,658.1c3.8,0,7.1-0.2,9.9-0.7
		c2.8-0.5,5.3-1.2,7.6-2.4c2.3-1.1,4-2.8,5.2-4.9c1.2-2.1,1.8-4.8,1.8-7.9c0-3.1-0.6-5.8-1.7-7.9c-1.1-2.1-2.8-3.7-5-4.9
		c-2.2-1.1-4.6-1.9-7.1-2.3c-2.5-0.4-5.5-0.6-8.9-0.6H934v31.6H944.2z M945.6,706c4.6,0,8.3-0.2,11.3-0.7c3-0.5,5.6-1.3,8-2.5
		c2.3-1.2,4-3,5.1-5.3c1.1-2.3,1.6-5.2,1.6-8.8c0-6.1-2.3-10.3-6.8-12.7c-4.6-2.4-11.2-3.7-20-3.7H934V706H945.6z M1026.9,722.4
		c-1.9-1.2-3.4-2.8-4.5-4.9c-1.1-2-1.8-4.2-2.4-6.5c-0.5-2.3-0.8-4.7-0.8-7.2v-72.3c0-3,0.1-5.6,0.3-7.6c0.2-2.1,0.7-4.2,1.4-6.3
		c0.7-2.1,1.8-3.8,3.1-5.1c1.3-1.3,3.1-2.3,5.3-3.1c2.3-0.8,5-1.2,8.2-1.2h51.3c3.1,0,5.7,1,7.8,3.1c2.1,2.1,3.2,4.7,3.2,7.7
		c0,3-1.1,5.6-3.2,7.6c-2.2,2-4.8,3.1-7.8,3.1h-41.1v24.8h37.5c3.1,0,5.7,1,7.8,3.1c2.2,2.1,3.2,4.7,3.2,7.7s-1.1,5.6-3.2,7.6
		c-2.1,2-4.8,3.1-7.8,3.1h-37.5v26.7h43.1c2.9,0,5.3,1,7.3,3.1c2,2.1,3,4.6,3,7.6s-1,5.6-3,7.6c-2,2-4.4,3.1-7.3,3.1h-57.3
		C1031.1,724.2,1028.8,723.6,1026.9,722.4z M1123,719.8c-2.8-2.9-4.1-7-4.1-12.1v-83.9c0-5.1,1.7-9,5.1-11.6
		c3.4-2.6,7.7-3.9,12.9-3.9h32c5.1,0,9.7,0.2,13.7,0.7c4.1,0.5,8.1,1.3,12.1,2.6c4,1.3,7.3,3,10,5.1c2.7,2.1,4.8,4.9,6.4,8.4
		c1.6,3.5,2.5,7.6,2.5,12.3c0,15.2-8.5,24.3-25.6,27.2v0.3c4.3,0.5,7.8,1.2,10.5,2.3c2.7,1,4.9,2.6,6.7,4.7c1.8,2.1,3.1,4.6,4,7.4
		c0.9,2.8,1.6,6.5,2.1,11.1l1.5,10.6c0.9,8.2,0.3,14.1-1.8,17.8c-2.1,3.7-6,5.5-11.6,5.5c-4.8,0-8.4-1.5-10.8-4.6
		c-2.4-3.1-3.9-8-4.5-14.9l-1.2-10.4c-0.6-6.1-2.2-10.4-5-13.1c-2.7-2.7-7.2-4.1-13.5-4.1h-16.3v30.6c0,5.4-1.4,9.5-4.1,12.3
		c-2.8,2.8-6.3,4.3-10.6,4.3C1129.2,724.2,1125.7,722.7,1123,719.8z M1160.6,658.1c3.3,0,6.2-0.2,8.7-0.6c2.5-0.4,5-1.1,7.6-2.2
		c2.5-1,4.5-2.6,5.9-4.8c1.4-2.2,2.1-4.9,2.1-8.1c0-2.2-0.3-4.1-0.8-5.8c-0.5-1.7-1.1-3.1-1.9-4.2c-0.8-1.1-1.8-2.1-3.2-2.9
		c-1.4-0.8-2.6-1.4-3.9-1.8c-1.2-0.4-2.8-0.7-4.7-0.9c-1.9-0.2-3.6-0.3-5-0.4c-1.4-0.1-3.2-0.1-5.4-0.1h-12.3v31.7H1160.6z
		 M1260.5,719.3c-2.8-3.3-4.3-7.2-4.3-11.7v-77.4h-21.9c-3.1,0-5.7-1.1-8-3.2c-2.3-2.1-3.4-4.7-3.4-7.8s1.1-5.6,3.4-7.8
		c2.3-2.2,4.9-3.2,8-3.2h72.7c3.1,0,5.7,1.1,8,3.2c2.2,2.1,3.3,4.8,3.3,7.8c0,3-1.1,5.6-3.3,7.7c-2.2,2.1-4.9,3.2-8,3.2h-21.4v77.4
		c0,4.5-1.4,8.4-4.3,11.7c-2.9,3.3-6.4,4.9-10.4,4.9C1266.8,724.2,1263.4,722.6,1260.5,719.3z M1338.8,722.4
		c-1.9-1.2-3.4-2.8-4.5-4.9c-1.1-2-1.8-4.2-2.4-6.5c-0.5-2.3-0.8-4.7-0.8-7.2v-72.3c0-3,0.1-5.6,0.3-7.6c0.2-2.1,0.7-4.2,1.4-6.3
		c0.7-2.1,1.8-3.8,3.1-5.1c1.3-1.3,3.1-2.3,5.3-3.1c2.3-0.8,5-1.2,8.2-1.2h51.3c3.1,0,5.7,1,7.8,3.1c2.1,2.1,3.2,4.7,3.2,7.7
		c0,3-1.1,5.6-3.2,7.6c-2.2,2-4.8,3.1-7.8,3.1h-41.1v24.8h37.5c3.1,0,5.7,1,7.8,3.1c2.2,2.1,3.2,4.7,3.2,7.7s-1.1,5.6-3.2,7.6
		c-2.1,2-4.8,3.1-7.8,3.1h-37.5v26.7h43.1c2.9,0,5.3,1,7.3,3.1c2,2.1,3,4.6,3,7.6s-1,5.6-3,7.6c-2,2-4.4,3.1-7.3,3.1h-57.3
		C1342.9,724.2,1340.7,723.6,1338.8,722.4z M1369.3,595.6c-1.1-1-1.7-2.4-1.7-4.1c0-1,0.6-2.5,1.9-4.5l15.9-22.8
		c2.6-4.2,5.4-6.4,8.3-6.4c2.7,0,5.1,1,7.4,3.1c2.3,2.1,3.5,4.5,3.5,7.4c0,2.4-1.2,4.7-3.7,7l-23.5,20.1c-1.2,1.1-2.6,1.6-4.2,1.6
		C1371.8,597,1370.5,596.5,1369.3,595.6z"/>
</g>
</svg>
